<mxfile host="app.diagrams.net" modified="2023-04-23T05:14:43.340Z" agent="Mozilla/5.0 (Macintosh; Intel Mac OS X 10_15_7) AppleWebKit/537.36 (KHTML, like Gecko) Chrome/112.0.0.0 Safari/537.36" etag="Gtsjxa8GNLV8aneFBN_S" version="21.1.5" type="github">
  <diagram id="_GadSQbouHRodcmlRREv" name="第 1 页">
    <mxGraphModel dx="954" dy="527" grid="1" gridSize="10" guides="1" tooltips="1" connect="1" arrows="1" fold="1" page="1" pageScale="1" pageWidth="827" pageHeight="1169" math="0" shadow="0">
      <root>
        <mxCell id="0" />
        <mxCell id="1" parent="0" />
        <mxCell id="BNpk1UqfVK1sTig8jKpM-4" style="edgeStyle=orthogonalEdgeStyle;rounded=0;orthogonalLoop=1;jettySize=auto;html=1;exitX=1;exitY=0.5;exitDx=0;exitDy=0;exitPerimeter=0;entryX=0;entryY=0.5;entryDx=0;entryDy=0;" parent="1" edge="1">
          <mxGeometry relative="1" as="geometry">
            <mxPoint x="130" y="320" as="sourcePoint" />
          </mxGeometry>
        </mxCell>
        <mxCell id="BNpk1UqfVK1sTig8jKpM-5" style="edgeStyle=orthogonalEdgeStyle;rounded=0;orthogonalLoop=1;jettySize=auto;html=1;exitX=1;exitY=0.5;exitDx=0;exitDy=0;entryX=0;entryY=0.5;entryDx=0;entryDy=0;entryPerimeter=0;" parent="1" edge="1">
          <mxGeometry relative="1" as="geometry">
            <mxPoint x="290" y="320" as="sourcePoint" />
          </mxGeometry>
        </mxCell>
        <mxCell id="BNpk1UqfVK1sTig8jKpM-7" style="edgeStyle=orthogonalEdgeStyle;rounded=0;orthogonalLoop=1;jettySize=auto;html=1;exitX=1;exitY=0.5;exitDx=0;exitDy=0;exitPerimeter=0;" parent="1" edge="1">
          <mxGeometry relative="1" as="geometry">
            <mxPoint x="464" y="320" as="sourcePoint" />
          </mxGeometry>
        </mxCell>
        <mxCell id="BNpk1UqfVK1sTig8jKpM-8" value="Y" style="edgeLabel;html=1;align=center;verticalAlign=middle;resizable=0;points=[];" parent="BNpk1UqfVK1sTig8jKpM-7" vertex="1" connectable="0">
          <mxGeometry x="-0.0789" y="-1" relative="1" as="geometry">
            <mxPoint as="offset" />
          </mxGeometry>
        </mxCell>
        <mxCell id="BZrz-Ed-qIsIVBLd-lZq-1" value="" style="endArrow=classic;html=1;rounded=0;" parent="1" edge="1" source="5hoD9FHaFW0HL2L04lyo-30">
          <mxGeometry width="50" height="50" relative="1" as="geometry">
            <mxPoint x="120" y="80" as="sourcePoint" />
            <mxPoint x="120" y="500" as="targetPoint" />
          </mxGeometry>
        </mxCell>
        <mxCell id="5hoD9FHaFW0HL2L04lyo-1" value="prod" style="ellipse;whiteSpace=wrap;html=1;aspect=fixed;" vertex="1" parent="1">
          <mxGeometry x="80" y="10" width="80" height="80" as="geometry" />
        </mxCell>
        <mxCell id="5hoD9FHaFW0HL2L04lyo-2" value="" style="endArrow=classic;html=1;rounded=0;" edge="1" parent="1" source="5hoD9FHaFW0HL2L04lyo-27">
          <mxGeometry width="50" height="50" relative="1" as="geometry">
            <mxPoint x="320" y="80" as="sourcePoint" />
            <mxPoint x="320" y="500" as="targetPoint" />
          </mxGeometry>
        </mxCell>
        <mxCell id="5hoD9FHaFW0HL2L04lyo-3" value="pre" style="ellipse;whiteSpace=wrap;html=1;aspect=fixed;" vertex="1" parent="1">
          <mxGeometry x="280" y="10" width="80" height="80" as="geometry" />
        </mxCell>
        <mxCell id="5hoD9FHaFW0HL2L04lyo-4" value="" style="endArrow=classic;html=1;rounded=0;" edge="1" parent="1" source="5hoD9FHaFW0HL2L04lyo-24">
          <mxGeometry width="50" height="50" relative="1" as="geometry">
            <mxPoint x="519" y="80" as="sourcePoint" />
            <mxPoint x="519" y="500" as="targetPoint" />
          </mxGeometry>
        </mxCell>
        <mxCell id="5hoD9FHaFW0HL2L04lyo-5" value="test" style="ellipse;whiteSpace=wrap;html=1;aspect=fixed;" vertex="1" parent="1">
          <mxGeometry x="479" y="10" width="80" height="80" as="geometry" />
        </mxCell>
        <mxCell id="5hoD9FHaFW0HL2L04lyo-6" value="" style="endArrow=classic;html=1;rounded=0;" edge="1" parent="1">
          <mxGeometry width="50" height="50" relative="1" as="geometry">
            <mxPoint x="720" y="80" as="sourcePoint" />
            <mxPoint x="720" y="500" as="targetPoint" />
          </mxGeometry>
        </mxCell>
        <mxCell id="5hoD9FHaFW0HL2L04lyo-7" value="dev" style="ellipse;whiteSpace=wrap;html=1;aspect=fixed;" vertex="1" parent="1">
          <mxGeometry x="680" y="10" width="80" height="80" as="geometry" />
        </mxCell>
        <mxCell id="5hoD9FHaFW0HL2L04lyo-8" value="" style="endArrow=classic;html=1;rounded=0;" edge="1" parent="1" source="5hoD9FHaFW0HL2L04lyo-20">
          <mxGeometry width="50" height="50" relative="1" as="geometry">
            <mxPoint x="920" y="80" as="sourcePoint" />
            <mxPoint x="920" y="500" as="targetPoint" />
          </mxGeometry>
        </mxCell>
        <mxCell id="5hoD9FHaFW0HL2L04lyo-9" value="feature" style="ellipse;whiteSpace=wrap;html=1;aspect=fixed;" vertex="1" parent="1">
          <mxGeometry x="880" y="10" width="80" height="80" as="geometry" />
        </mxCell>
        <mxCell id="5hoD9FHaFW0HL2L04lyo-12" value="" style="endArrow=classic;html=1;rounded=0;entryX=0;entryY=0.5;entryDx=0;entryDy=0;exitX=1;exitY=0.5;exitDx=0;exitDy=0;" edge="1" parent="1" source="5hoD9FHaFW0HL2L04lyo-33" target="5hoD9FHaFW0HL2L04lyo-14">
          <mxGeometry width="50" height="50" relative="1" as="geometry">
            <mxPoint x="160" y="130" as="sourcePoint" />
            <mxPoint x="680" y="160" as="targetPoint" />
          </mxGeometry>
        </mxCell>
        <mxCell id="5hoD9FHaFW0HL2L04lyo-14" value="" style="ellipse;whiteSpace=wrap;html=1;aspect=fixed;fillStyle=solid;fillColor=#ffe6cc;strokeColor=#d79b00;" vertex="1" parent="1">
          <mxGeometry x="700" y="140" width="40" height="40" as="geometry" />
        </mxCell>
        <mxCell id="5hoD9FHaFW0HL2L04lyo-18" value="" style="endArrow=classic;html=1;rounded=0;exitX=0.5;exitY=1;exitDx=0;exitDy=0;" edge="1" parent="1" source="5hoD9FHaFW0HL2L04lyo-9" target="5hoD9FHaFW0HL2L04lyo-17">
          <mxGeometry width="50" height="50" relative="1" as="geometry">
            <mxPoint x="920" y="100" as="sourcePoint" />
            <mxPoint x="920" y="500" as="targetPoint" />
          </mxGeometry>
        </mxCell>
        <mxCell id="5hoD9FHaFW0HL2L04lyo-17" value="" style="ellipse;whiteSpace=wrap;html=1;aspect=fixed;fillStyle=solid;fillColor=#ffe6cc;strokeColor=#d79b00;" vertex="1" parent="1">
          <mxGeometry x="900" y="190" width="40" height="40" as="geometry" />
        </mxCell>
        <mxCell id="5hoD9FHaFW0HL2L04lyo-19" value="" style="endArrow=classic;html=1;rounded=0;entryX=0;entryY=0.5;entryDx=0;entryDy=0;" edge="1" parent="1" target="5hoD9FHaFW0HL2L04lyo-17">
          <mxGeometry width="50" height="50" relative="1" as="geometry">
            <mxPoint x="740" y="160" as="sourcePoint" />
            <mxPoint x="790" y="110" as="targetPoint" />
          </mxGeometry>
        </mxCell>
        <mxCell id="5hoD9FHaFW0HL2L04lyo-21" value="" style="endArrow=classic;html=1;rounded=0;" edge="1" parent="1" source="5hoD9FHaFW0HL2L04lyo-17" target="5hoD9FHaFW0HL2L04lyo-20">
          <mxGeometry width="50" height="50" relative="1" as="geometry">
            <mxPoint x="920" y="230" as="sourcePoint" />
            <mxPoint x="920" y="500" as="targetPoint" />
          </mxGeometry>
        </mxCell>
        <mxCell id="5hoD9FHaFW0HL2L04lyo-20" value="" style="ellipse;whiteSpace=wrap;html=1;aspect=fixed;fillStyle=solid;fillColor=#ffe6cc;strokeColor=#d79b00;" vertex="1" parent="1">
          <mxGeometry x="900" y="260" width="40" height="40" as="geometry" />
        </mxCell>
        <mxCell id="5hoD9FHaFW0HL2L04lyo-22" value="" style="ellipse;whiteSpace=wrap;html=1;aspect=fixed;fillStyle=solid;fillColor=#ffe6cc;strokeColor=#d79b00;" vertex="1" parent="1">
          <mxGeometry x="700" y="290" width="40" height="40" as="geometry" />
        </mxCell>
        <mxCell id="5hoD9FHaFW0HL2L04lyo-23" value="" style="endArrow=classic;html=1;rounded=0;exitX=0;exitY=0.5;exitDx=0;exitDy=0;entryX=1;entryY=0.5;entryDx=0;entryDy=0;" edge="1" parent="1" source="5hoD9FHaFW0HL2L04lyo-20" target="5hoD9FHaFW0HL2L04lyo-22">
          <mxGeometry width="50" height="50" relative="1" as="geometry">
            <mxPoint x="820" y="330" as="sourcePoint" />
            <mxPoint x="770" y="390" as="targetPoint" />
          </mxGeometry>
        </mxCell>
        <mxCell id="5hoD9FHaFW0HL2L04lyo-25" value="" style="endArrow=classic;html=1;rounded=0;exitX=0.5;exitY=1;exitDx=0;exitDy=0;" edge="1" parent="1" source="5hoD9FHaFW0HL2L04lyo-5" target="5hoD9FHaFW0HL2L04lyo-24">
          <mxGeometry width="50" height="50" relative="1" as="geometry">
            <mxPoint x="520" y="100" as="sourcePoint" />
            <mxPoint x="519" y="500" as="targetPoint" />
          </mxGeometry>
        </mxCell>
        <mxCell id="5hoD9FHaFW0HL2L04lyo-28" value="" style="edgeStyle=orthogonalEdgeStyle;rounded=0;orthogonalLoop=1;jettySize=auto;html=1;" edge="1" parent="1" source="5hoD9FHaFW0HL2L04lyo-24" target="5hoD9FHaFW0HL2L04lyo-27">
          <mxGeometry relative="1" as="geometry" />
        </mxCell>
        <mxCell id="5hoD9FHaFW0HL2L04lyo-24" value="" style="ellipse;whiteSpace=wrap;html=1;aspect=fixed;fillStyle=solid;fillColor=#ffe6cc;strokeColor=#d79b00;" vertex="1" parent="1">
          <mxGeometry x="499" y="340" width="40" height="40" as="geometry" />
        </mxCell>
        <mxCell id="5hoD9FHaFW0HL2L04lyo-26" value="" style="endArrow=classic;html=1;rounded=0;entryX=1;entryY=0.5;entryDx=0;entryDy=0;" edge="1" parent="1" target="5hoD9FHaFW0HL2L04lyo-24">
          <mxGeometry width="50" height="50" relative="1" as="geometry">
            <mxPoint x="700" y="320" as="sourcePoint" />
            <mxPoint x="750" y="270" as="targetPoint" />
          </mxGeometry>
        </mxCell>
        <mxCell id="5hoD9FHaFW0HL2L04lyo-29" value="" style="endArrow=classic;html=1;rounded=0;" edge="1" parent="1" target="5hoD9FHaFW0HL2L04lyo-27">
          <mxGeometry width="50" height="50" relative="1" as="geometry">
            <mxPoint x="320" y="90" as="sourcePoint" />
            <mxPoint x="320" y="500" as="targetPoint" />
          </mxGeometry>
        </mxCell>
        <mxCell id="5hoD9FHaFW0HL2L04lyo-31" value="" style="edgeStyle=orthogonalEdgeStyle;rounded=0;orthogonalLoop=1;jettySize=auto;html=1;" edge="1" parent="1" source="5hoD9FHaFW0HL2L04lyo-27" target="5hoD9FHaFW0HL2L04lyo-30">
          <mxGeometry relative="1" as="geometry" />
        </mxCell>
        <mxCell id="5hoD9FHaFW0HL2L04lyo-27" value="" style="ellipse;whiteSpace=wrap;html=1;aspect=fixed;fillStyle=solid;fillColor=#ffe6cc;strokeColor=#d79b00;" vertex="1" parent="1">
          <mxGeometry x="300" y="340" width="40" height="40" as="geometry" />
        </mxCell>
        <mxCell id="5hoD9FHaFW0HL2L04lyo-32" value="" style="endArrow=classic;html=1;rounded=0;" edge="1" parent="1" source="5hoD9FHaFW0HL2L04lyo-33" target="5hoD9FHaFW0HL2L04lyo-30">
          <mxGeometry width="50" height="50" relative="1" as="geometry">
            <mxPoint x="120" y="80" as="sourcePoint" />
            <mxPoint x="120" y="500" as="targetPoint" />
          </mxGeometry>
        </mxCell>
        <mxCell id="5hoD9FHaFW0HL2L04lyo-30" value="1.0" style="ellipse;whiteSpace=wrap;html=1;aspect=fixed;fillStyle=solid;fillColor=#ffe6cc;strokeColor=#d79b00;" vertex="1" parent="1">
          <mxGeometry x="100" y="340" width="40" height="40" as="geometry" />
        </mxCell>
        <mxCell id="5hoD9FHaFW0HL2L04lyo-34" value="" style="endArrow=classic;html=1;rounded=0;" edge="1" parent="1" target="5hoD9FHaFW0HL2L04lyo-33">
          <mxGeometry width="50" height="50" relative="1" as="geometry">
            <mxPoint x="120" y="90" as="sourcePoint" />
            <mxPoint x="120" y="340" as="targetPoint" />
          </mxGeometry>
        </mxCell>
        <mxCell id="5hoD9FHaFW0HL2L04lyo-33" value="0.0.1" style="ellipse;whiteSpace=wrap;html=1;aspect=fixed;fillStyle=solid;fillColor=#ffe6cc;strokeColor=#d79b00;" vertex="1" parent="1">
          <mxGeometry x="100" y="110" width="40" height="40" as="geometry" />
        </mxCell>
      </root>
    </mxGraphModel>
  </diagram>
</mxfile>
